<svg width="40" height="40" viewBox="0 0 40 40" fill="none" xmlns="http://www.w3.org/2000/svg">
<path d="M10.0018 30.0018C8.61868 28.6187 7.58105 27.0561 6.88895 25.3142C6.19684 23.5723 5.85061 21.8013 5.85026 20.0013C5.84991 18.2013 6.19535 16.4304 6.88658 14.6887C7.57798 12.9471 8.61517 11.3848 9.99816 10.0018C11.3813 8.61868 12.9439 7.58105 14.6858 6.88895C16.4277 6.19684 18.1987 5.85061 19.9987 5.85026C21.7987 5.84991 23.5696 6.19535 25.3113 6.88658C27.0529 7.57798 28.6152 8.61518 29.9982 9.99816C31.3813 11.3813 32.4189 12.9439 33.1111 14.6858C33.8032 16.4277 34.1494 18.1987 34.1497 19.9987C34.1501 21.7987 33.8047 23.5696 33.1134 25.3113C32.422 27.0529 31.3848 28.6152 30.0018 29.9982C28.6187 31.3813 27.0561 32.4189 25.3142 33.1111C23.5723 33.8032 21.8013 34.1494 20.0013 34.1497C18.2013 34.1501 16.4304 33.8047 14.6887 33.1134C12.9471 32.422 11.3848 31.3848 10.0018 30.0018ZM12.4171 29.1618C14.7476 31.0878 17.4412 32.0021 20.4979 31.9047C23.5546 31.8077 26.1956 30.6465 28.4211 28.4211C30.6465 26.1956 31.8078 23.5613 31.905 20.5182C32.0022 17.475 31.0878 14.7746 29.1618 12.4171L12.4171 29.1618Z" fill="white"/>
</svg>
