<svg width="565" height="172" viewBox="0 0 565 172" fill="none" xmlns="http://www.w3.org/2000/svg">
<path d="M49.1919 0.781738V125.375H139.786V166.847H0.500488V0.781738H49.1919Z" fill="black" stroke="black"/>
<path d="M204.278 0.781738V84.2729C204.278 96.2552 205.951 107.513 211.438 115.784C216.952 124.096 226.258 129.309 241.304 129.309C256.35 129.309 265.712 124.087 271.283 115.771C276.827 107.495 278.559 96.2383 278.559 84.2729V0.781738H327.25V86.3735C327.25 113.442 320.912 134.52 307.054 148.833C293.199 163.144 271.741 170.782 241.304 170.782C210.867 170.782 189.467 163.143 175.669 148.833C161.868 134.521 155.586 113.443 155.586 86.3735V0.781738H204.278Z" fill="black" stroke="black"/>
<path d="M395.585 0.781738L440.253 131.987L440.728 133.38L441.2 131.987L485.678 0.781738H534.37L473.29 166.847H407.783L346.892 0.781738H395.585Z" fill="black" stroke="black"/>
<path d="M563.617 132.474V167.848H524.587V132.474H563.617Z" fill="black" stroke="black"/>
</svg>
