<svg width="96" height="96" viewBox="0 0 96 96" fill="none" xmlns="http://www.w3.org/2000/svg">
<g clip-path="url(#clip0_2013_2)">
<path d="M8.34693 33.1336V54.4237H23.7191V61.5103H0.0848999V33.1336H8.34693Z" fill="black" stroke="black"/>
<path d="M34.6622 33.1336V47.4003C34.6622 49.4478 34.946 51.3715 35.8771 52.7848C36.8127 54.2051 38.3917 55.0959 40.9448 55.0959C43.4978 55.0959 45.0864 54.2036 46.0317 52.7826C46.9724 51.3684 47.2663 49.4449 47.2663 47.4003V33.1336H55.5282V47.7592C55.5282 52.3846 54.4528 55.9863 52.1013 58.4321C49.7504 60.8775 46.1094 62.1827 40.9448 62.1827C35.7802 62.1827 32.149 60.8773 29.8077 58.4321C27.466 55.9865 26.4 52.3848 26.4 47.7592V33.1336H34.6622Z" fill="black" stroke="black"/>
<path d="M67.1234 33.1336L74.7028 55.5535L74.7834 55.7915L74.8635 55.5535L82.4106 33.1336H90.6727L80.3085 61.5103H69.1932L58.8611 33.1336H67.1234Z" fill="black" stroke="black"/>
<path d="M95.6354 55.6367V61.6813H89.0127V55.6367H95.6354Z" fill="black" stroke="black"/>
</g>
<defs>
<clipPath id="clip0_2013_2">
<rect width="95.87" height="29.3908" fill="white" transform="translate(0 33)"/>
</clipPath>
</defs>
</svg>
